<?xml version="1.0" encoding="UTF-8"?><svg id="Calque_1" xmlns="http://www.w3.org/2000/svg" xmlns:xlink="http://www.w3.org/1999/xlink" viewBox="0 0 88.09 90.52"><defs><linearGradient id="Dégradé_sans_nom_149" x1="52.73" y1="33.11" x2="72.01" y2="33.11" gradientUnits="userSpaceOnUse"><stop offset="0" stop-color="#00b1e2"/><stop offset=".05" stop-color="#04a9dc"/><stop offset=".29" stop-color="#158cc9"/><stop offset=".53" stop-color="#2278bc"/><stop offset=".77" stop-color="#296cb3"/><stop offset="1" stop-color="#2c68b1"/></linearGradient><linearGradient id="Dégradé_sans_nom_149-2" x1="44.17" y1="51.07" x2="83.67" y2="51.07" xlink:href="#Dégradé_sans_nom_149"/><linearGradient id="Dégradé_sans_nom_149-3" x1="30.67" y1="68.15" x2="78.55" y2="68.15" xlink:href="#Dégradé_sans_nom_149"/><linearGradient id="Dégradé_sans_nom_149-4" x1="26.13" y1="25.87" x2="60.17" y2="25.87" xlink:href="#Dégradé_sans_nom_149"/><linearGradient id="Dégradé_sans_nom_149-5" x1="4" y1="30.99" x2="49.38" y2="30.99" xlink:href="#Dégradé_sans_nom_149"/><linearGradient id="Dégradé_sans_nom_149-6" x1="8.1" y1="52.79" x2="35.35" y2="52.79" xlink:href="#Dégradé_sans_nom_149"/><linearGradient id="Dégradé_sans_nom_149-7" x1="19.77" y1="66.68" x2="47.09" y2="66.68" xlink:href="#Dégradé_sans_nom_149"/></defs><path d="M54.29,51.66c1.62-1.11,6.97-5.09,8.69-12.32,1.35-5.7-.28-10.34-1.17-12.84-2.37-6.7-6.79-10.76-9.08-12.58,2.25-1.69,4.5-3.37,6.75-5.06,1.89,1.45,11.02,8.79,12.32,21.41.26,2.52,1.4,13.53-6.36,21.41-3.33,3.38-7.09,4.95-9.47,5.71-.56-1.9-1.12-3.81-1.69-5.71Z" style="fill:url(#Dégradé_sans_nom_149);"/><path d="M75.3,34.66h8.3c.16,2.53.69,14.87-8.3,24.26-2.01,2.1-6.97,7.13-15.18,8.3-7.87,1.13-13.94-1.97-15.96-3.11,1.04-1.86,2.08-3.72,3.11-5.58,2.54.84,7.55,2.03,12.97.13,8.79-3.08,12.14-12,13.23-14.92,1.37-3.65,1.73-6.9,1.82-9.08Z" style="fill:url(#Dégradé_sans_nom_149-2);"/><path d="M36.9,56.46c-2.08.3-4.15.61-6.23.91.45,2.97,2.13,11.21,9.21,16.99,9.65,7.88,23.07,6.07,31.26,1.95,3.37-1.7,5.81-3.76,7.39-5.32-1.56-2.46-3.11-4.93-4.67-7.39-1.92,1.65-8.94,7.28-18.68,6.75-2.57-.14-8.33-.46-13.1-4.93-3.44-3.23-4.71-7.06-5.19-8.95Z" style="fill:url(#Dégradé_sans_nom_149-3);"/><path d="M53.64,42.06c.08-2.73-.2-8.06-3.5-13.23-7.54-11.78-23.34-10.94-24-10.9v-9.08c2.67-.28,15.73-1.37,25.43,7.52,1.6,1.47,5.41,5.04,7.39,11.16,2.31,7.11.73,13.25,0,15.57-1.77-.35-3.55-.69-5.32-1.04Z" style="fill:url(#Dégradé_sans_nom_149-4);"/><path d="M49.38,32.15l-4.26,4.07c-1.22-1.16-6.42-5.84-14.44-6-7.93-.16-13.26,4.19-14.8,5.49-2.27,1.92-3.75,3.93-4.65,5.36-2.41-1.68-4.82-3.36-7.23-5.03,1.18-2.12,5.9-10.03,15.81-13.43,2.59-.89,10.65-3.5,19.23.45,5.79,2.66,8.99,7.01,10.33,9.1Z" style="fill:url(#Dégradé_sans_nom_149-5);"/><path d="M35.35,39.34v-5.79c-9.38-.58-18.35,4.01-23.33,11.94-5.07,8.06-5.23,18.33-.42,26.59,2.49-.76,4.98-1.53,7.48-2.29-3.25-7.88-2.24-16.66,2.76-22.85,4.83-5.97,11.57-7.29,13.51-7.6Z" style="fill:url(#Dégradé_sans_nom_149-6);"/><path d="M27.69,44.61l4.41,3.47c-.83,1.27-4.98,7.92-2.98,16.1,1.81,7.37,7.44,11.24,9.7,12.79,3.15,2.17,6.2,3.21,8.27,3.75-.97,2.68-1.95,5.37-2.92,8.05-3.42-.96-11.4-3.74-17.48-11.47-2.55-3.25-8.29-10.55-6.61-19.93,1.23-6.86,5.77-11.18,7.61-12.76Z" style="fill:url(#Dégradé_sans_nom_149-7);"/></svg>